<svg width="64" height="64" xmlns="http://www.w3.org/2000/svg">

 <g>
  <title>background</title>
  <rect fill="none" id="canvas_background" height="402" width="582" y="-1" x="-1"/>
 </g>
 <g>
  <title>Layer 1</title>
  <path fill="#000000" id="Fill-3" d="m55.5,18.800003l-1.900002,-1.900009l-17.599998,17.600006c-2.200001,2.199997 -5.900002,2.199997 -8.099998,0l-17.599998,-17.5l-1.900002,1.899994l13.099998,13.100006l-13.099998,13.100006l1.900002,1.899994l13.099998,-13.100006l2.599998,2.600006c1.599998,1.600006 3.700001,2.5 5.900002,2.5s4.299999,-0.899994 5.899998,-2.5l2.600002,-2.600006l13.099998,13.100006l1.900002,-1.899994l-13.100002,-13.100006l13.200001,-13.199997" class="st0"/>
  <path fill="#000000" id="Fill-4" d="m51.799999,50.399994l-39.499996,0c-2.300003,0 -4.200005,-1.900009 -4.200005,-4.199997l0,-28.200012c0,-2.299988 1.900002,-4.199997 4.200005,-4.199997l39.499996,0c2.299999,0 4.200001,1.900009 4.200001,4.199997l0,28.200012c0,2.300003 -1.900002,4.199997 -4.200001,4.199997l0,0zm-39.600002,-33.899994c-0.799995,0 -1.399994,0.600006 -1.399994,1.399994l0,28.200012c0,0.799988 0.599998,1.399994 1.399994,1.399994l39.500004,0c0.799999,0 1.399998,-0.600006 1.399998,-1.399994l0,-28.200012c0,-0.799988 -0.599998,-1.399994 -1.399998,-1.399994l-39.500004,0l0,0z" class="st0"/>
 </g>
</svg>